# xmcd
#
# Track frame offsets: 
#        150
#        9902
#        26207
#        39872
#        52307
#        64802
#        79960
#        100465
#        116290
#        137627
#        156670
#        176220
#
# Disc length: 2695 seconds
#
# Revision: 8
# Processed by: cddbd v1.5.2PL0 Copyright (c) Steve Scherf et al.
# Submitted via: ExactAudioCopy v0.95b4
#
DISCID=a60a850c
DTITLE=Toadies - Hell Below, Stars Above
DYEAR=2001
DGENRE=Alt. Rock
TTITLE0=Plane Crash
TTITLE1=Push The Hand
TTITLE2=Little Sin
TTITLE3=Motivational
TTITLE4=Heel
TTITLE5=You'll Come Down
TTITLE6=Pressed Against The Sky
TTITLE7=What We Have We Steal
TTITLE8=Jigsaw Girl
TTITLE9=Sweetness
TTITLE10=Hell Below, Stars Above
TTITLE11=Dollskin
EXTD=YEAR: 2001
EXTT0=
EXTT1=
EXTT2=
EXTT3=
EXTT4=
EXTT5=
EXTT6=
EXTT7=
EXTT8=
EXTT9=
EXTT10=
EXTT11=
PLAYORDER=
